<svg width="30" height="30" viewBox="0 0 30 30" fill="none" xmlns="http://www.w3.org/2000/svg">
<path d="M27.0968 1.45163H2.90323C1.30645 1.45163 0 2.75808 0 4.35486C0 5.95163 1.30645 7.25808 2.90323 7.25808H27.0968C28.6935 7.25808 30 5.95163 30 4.35486C30 2.75808 28.6935 1.45163 27.0968 1.45163Z" fill="white"/>
<path d="M27.0968 12.0968H2.90323C1.30645 12.0968 0 13.4033 0 15C0 16.5968 1.30645 17.9033 2.90323 17.9033H27.0968C28.6935 17.9033 30 16.5968 30 15C30 13.4033 28.6935 12.0968 27.0968 12.0968Z" fill="white"/>
<path d="M27.0968 22.7419H2.90323C1.30645 22.7419 0 24.0484 0 25.6452C0 27.2419 1.30645 28.5484 2.90323 28.5484H27.0968C28.6935 28.5484 30 27.2419 30 25.6452C30 24.0484 28.6935 22.7419 27.0968 22.7419Z" fill="white"/>
</svg>
